# xmcd CD database file
#
# Track frame offsets:
#	150
#	25625
#	51230
#	61572
#	94345
#	111912
#	133360
#	158332
#	176705
#	190657
#	211055
#	244180
#
# Disc length: 3763 seconds
#
# Revision: 0
# Processed by: cddbd v1.5.2PL0 Copyright (c) Steve Scherf et al.
# Submitted via: CDex 1.51
#
DISCID=9b0eb10c
DTITLE=John Lewis - J.S.Bach Preludes and Fugues from the Well-Tempered Clavier Book 1[disc 4]
DYEAR=1990
DGENRE=Jazz
TTITLE0=Prelude No. 19
TTITLE1=Fugue No. 19
TTITLE2=Prelude No. 20
TTITLE3=Fugue No. 20
TTITLE4=Prelude No. 21
TTITLE5=Fugue No. 21
TTITLE6=Prelude No. 22
TTITLE7=Fugue No. 22
TTITLE8=Prelude No. 23
TTITLE9=Fugue No. 23
TTITLE10=Prelude No. 24
TTITLE11=Fugue No. 24
EXTD=YEAR: 1990
EXTT0=
EXTT1=
EXTT2=
EXTT3=
EXTT4=
EXTT5=
EXTT6=
EXTT7=
EXTT8=
EXTT9=
EXTT10=
EXTT11=
PLAYORDER=
